<svg aria-hidden="true" style="width:0;height:0;position:absolute;overflow:hidden" xmlns="http://www.w3.org/2000/svg"><defs><symbol id="icon-EnvelopeSimple" viewBox="0 0 32 32"><path fill="none" stroke="#142f5b" style="stroke:var(--color1,#142f5b)" stroke-linejoin="round" stroke-linecap="round" stroke-width="2" d="M4 7h24v17a.997.997 0 0 1-1 1H5a.997.997 0 0 1-1-1V7z"/><path fill="none" stroke="#142f5b" style="stroke:var(--color1,#142f5b)" stroke-linejoin="round" stroke-linecap="round" stroke-width="2" d="M28 7 16 18 4 7"/></symbol><symbol id="icon-FacebookLogo" viewBox="0 0 32 32"><path fill="none" stroke="#142f5b" style="stroke:var(--color1,#142f5b)" stroke-linejoin="round" stroke-linecap="round" stroke-width="2" d="M16 28c6.627 0 12-5.373 12-12S22.627 4 16 4 4 9.373 4 16s5.373 12 12 12z"/><path fill="none" stroke="#142f5b" style="stroke:var(--color1,#142f5b)" stroke-linejoin="round" stroke-linecap="round" stroke-width="2" d="M21 11h-2a2.987 2.987 0 0 0-3 3v14M12 18h8"/></symbol><symbol id="icon-LinkedinLogo" viewBox="0 0 32 32"><path fill="none" stroke="#142f5b" style="stroke:var(--color1,#142f5b)" stroke-linejoin="round" stroke-linecap="round" stroke-width="2" d="M26.5 4.5h-21a1 1 0 0 0-1 1v21a1 1 0 0 0 1 1h21a1 1 0 0 0 1-1v-21a1 1 0 0 0-1-1zM15 14v8M11 14v8"/><path fill="none" stroke="#142f5b" style="stroke:var(--color1,#142f5b)" stroke-linejoin="round" stroke-linecap="round" stroke-width="2" d="M15 17.5a3.502 3.502 0 0 1 5.975-2.475A3.502 3.502 0 0 1 22 17.5V22"/><path fill="#142f5b" style="fill:var(--color1,#142f5b)" d="M12.438 10a1.438 1.438 0 1 1-2.876 0 1.438 1.438 0 0 1 2.876 0z"/></symbol><symbol id="icon-List" viewBox="0 0 32 32"><path fill="none" stroke="#142f5b" style="stroke:var(--color1,#142f5b)" stroke-linejoin="round" stroke-linecap="round" stroke-width="2" d="M5 16h22M5 8h22M5 24h22"/></symbol><symbol id="icon-MapPin" viewBox="0 0 32 32"><path fill="none" stroke="#142f5b" style="stroke:var(--color1,#142f5b)" stroke-linejoin="round" stroke-linecap="round" stroke-width="2" d="M16 17a4 4 0 1 0 0-8 4 4 0 0 0 0 8z"/><path fill="none" stroke="#142f5b" style="stroke:var(--color1,#142f5b)" stroke-linejoin="round" stroke-linecap="round" stroke-width="2" d="M26 13c0 9-10 16-10 16S6 22 6 13a10.001 10.001 0 0 1 20 0v0z"/></symbol><symbol id="icon-MapTrifold" viewBox="0 0 33 32"><path fill="none" stroke="#142f5b" style="stroke:var(--color1,#142f5b)" stroke-linejoin="round" stroke-linecap="round" stroke-width="2" d="m12.5 23-8 2V7l8-2M20.5 27l-8-4V5l8 4v18zM20.5 9l8-2v18l-8 2"/></symbol><symbol id="icon-Phone" viewBox="0 0 32 32"><path fill="none" stroke="#142f5b" style="stroke:var(--color1,#142f5b)" stroke-linejoin="round" stroke-linecap="round" stroke-width="2.667" d="M11.563 15.6a10.451 10.451 0 0 0 4.875 4.863 1.006 1.006 0 0 0 .988-.075l3.125-2.087a.982.982 0 0 1 .95-.087l5.85 2.512a.985.985 0 0 1 .6 1.037A5.999 5.999 0 0 1 22.001 27a17 17 0 0 1-17-17 5.998 5.998 0 0 1 5.237-5.95.99.99 0 0 1 1.037.6l2.512 5.863a1.005 1.005 0 0 1-.075.937l-2.088 3.175a1.002 1.002 0 0 0-.062.975v0z"/></symbol><symbol id="icon-XSquare" viewBox="0 0 32 32"><path fill="none" stroke="#142f5b" style="stroke:var(--color1,#142f5b)" stroke-linejoin="round" stroke-linecap="round" stroke-width="2" d="m20 12-8 8M20 20l-8-8M26 5H6a1 1 0 0 0-1 1v20a1 1 0 0 0 1 1h20a1 1 0 0 0 1-1V6a1 1 0 0 0-1-1z"/></symbol></defs></svg>