<svg aria-hidden="true" style="position: absolute; width: 0; height: 0; overflow: hidden;" version="1.1" xmlns="http://www.w3.org/2000/svg" xmlns:xlink="http://www.w3.org/1999/xlink">
<defs>
<symbol id="icon-EnvelopeSimple" viewBox="0 0 32 32">
<path fill="none" stroke="#142f5b" style="stroke: var(--color1, #142f5b)" stroke-linejoin="round" stroke-linecap="round" stroke-miterlimit="4" stroke-width="2" d="M4 7h24v17c0 0.265-0.105 0.52-0.293 0.707s-0.442 0.293-0.707 0.293h-22c-0.265 0-0.52-0.105-0.707-0.293s-0.293-0.442-0.293-0.707v-17z"></path>
<path fill="none" stroke="#142f5b" style="stroke: var(--color1, #142f5b)" stroke-linejoin="round" stroke-linecap="round" stroke-miterlimit="4" stroke-width="2" d="M28 7l-12 11-12-11"></path>
</symbol>
<symbol id="icon-FacebookLogo" viewBox="0 0 32 32">
<path fill="none" stroke="#142f5b" style="stroke: var(--color1, #142f5b)" stroke-linejoin="round" stroke-linecap="round" stroke-miterlimit="4" stroke-width="2" d="M16 28c6.627 0 12-5.373 12-12s-5.373-12-12-12c-6.627 0-12 5.373-12 12s5.373 12 12 12z"></path>
<path fill="none" stroke="#142f5b" style="stroke: var(--color1, #142f5b)" stroke-linejoin="round" stroke-linecap="round" stroke-miterlimit="4" stroke-width="2" d="M21 11h-2c-0.394-0.002-0.785 0.075-1.15 0.225s-0.696 0.371-0.975 0.65c-0.279 0.279-0.5 0.61-0.65 0.975s-0.227 0.756-0.225 1.15v14"></path>
<path fill="none" stroke="#142f5b" style="stroke: var(--color1, #142f5b)" stroke-linejoin="round" stroke-linecap="round" stroke-miterlimit="4" stroke-width="2" d="M12 18h8"></path>
</symbol>
<symbol id="icon-LinkedinLogo" viewBox="0 0 32 32">
<path fill="none" stroke="#142f5b" style="stroke: var(--color1, #142f5b)" stroke-linejoin="round" stroke-linecap="round" stroke-miterlimit="4" stroke-width="2" d="M26.5 4.5h-21c-0.552 0-1 0.448-1 1v21c0 0.552 0.448 1 1 1h21c0.552 0 1-0.448 1-1v-21c0-0.552-0.448-1-1-1z"></path>
<path fill="none" stroke="#142f5b" style="stroke: var(--color1, #142f5b)" stroke-linejoin="round" stroke-linecap="round" stroke-miterlimit="4" stroke-width="2" d="M15 14v8"></path>
<path fill="none" stroke="#142f5b" style="stroke: var(--color1, #142f5b)" stroke-linejoin="round" stroke-linecap="round" stroke-miterlimit="4" stroke-width="2" d="M11 14v8"></path>
<path fill="none" stroke="#142f5b" style="stroke: var(--color1, #142f5b)" stroke-linejoin="round" stroke-linecap="round" stroke-miterlimit="4" stroke-width="2" d="M15 17.5c0-0.928 0.369-1.819 1.025-2.475s1.547-1.025 2.475-1.025c0.928 0 1.819 0.369 2.475 1.025s1.025 1.547 1.025 2.475v4.5"></path>
<path fill="#142f5b" style="fill: var(--color1, #142f5b)" d="M12.438 10c0 0.794-0.644 1.438-1.438 1.438s-1.438-0.644-1.438-1.438c0-0.794 0.644-1.438 1.438-1.438s1.438 0.644 1.438 1.438z"></path>
</symbol>
<symbol id="icon-List" viewBox="0 0 32 32">
<path fill="none" stroke="#142f5b" style="stroke: var(--color1, #142f5b)" stroke-linejoin="round" stroke-linecap="round" stroke-miterlimit="4" stroke-width="2" d="M5 16h22"></path>
<path fill="none" stroke="#142f5b" style="stroke: var(--color1, #142f5b)" stroke-linejoin="round" stroke-linecap="round" stroke-miterlimit="4" stroke-width="2" d="M5 8h22"></path>
<path fill="none" stroke="#142f5b" style="stroke: var(--color1, #142f5b)" stroke-linejoin="round" stroke-linecap="round" stroke-miterlimit="4" stroke-width="2" d="M5 24h22"></path>
</symbol>
<symbol id="icon-MapPin" viewBox="0 0 32 32">
<path fill="none" stroke="#142f5b" style="stroke: var(--color1, #142f5b)" stroke-linejoin="round" stroke-linecap="round" stroke-miterlimit="4" stroke-width="2" d="M16 17c2.209 0 4-1.791 4-4s-1.791-4-4-4c-2.209 0-4 1.791-4 4s1.791 4 4 4z"></path>
<path fill="none" stroke="#142f5b" style="stroke: var(--color1, #142f5b)" stroke-linejoin="round" stroke-linecap="round" stroke-miterlimit="4" stroke-width="2" d="M26 13c0 9-10 16-10 16s-10-7-10-16c0-2.652 1.054-5.196 2.929-7.071s4.419-2.929 7.071-2.929c2.652 0 5.196 1.054 7.071 2.929s2.929 4.419 2.929 7.071v0z"></path>
</symbol>
<symbol id="icon-MapTrifold" viewBox="0 0 33 32">
<path fill="none" stroke="#142f5b" style="stroke: var(--color1, #142f5b)" stroke-linejoin="round" stroke-linecap="round" stroke-miterlimit="4" stroke-width="2" d="M12.5 23l-8 2v-18l8-2"></path>
<path fill="none" stroke="#142f5b" style="stroke: var(--color1, #142f5b)" stroke-linejoin="round" stroke-linecap="round" stroke-miterlimit="4" stroke-width="2" d="M20.5 27l-8-4v-18l8 4v18z"></path>
<path fill="none" stroke="#142f5b" style="stroke: var(--color1, #142f5b)" stroke-linejoin="round" stroke-linecap="round" stroke-miterlimit="4" stroke-width="2" d="M20.5 9l8-2v18l-8 2"></path>
</symbol>
<symbol id="icon-Phone" viewBox="0 0 32 32">
<path fill="none" stroke="#142f5b" style="stroke: var(--color1, #142f5b)" stroke-linejoin="round" stroke-linecap="round" stroke-miterlimit="4" stroke-width="2.6667" d="M11.563 15.6c1.029 2.125 2.747 3.839 4.875 4.863 0.157 0.074 0.331 0.106 0.504 0.093s0.34-0.071 0.484-0.168l3.125-2.087c0.138-0.094 0.298-0.151 0.464-0.166s0.333 0.012 0.486 0.079l5.85 2.512c0.2 0.083 0.367 0.23 0.475 0.417s0.152 0.405 0.125 0.62c-0.185 1.447-0.892 2.777-1.987 3.741s-2.504 1.496-3.963 1.496c-4.509 0-8.833-1.791-12.021-4.979s-4.979-7.512-4.979-12.021c0-1.459 0.532-2.868 1.496-3.963s2.294-1.802 3.741-1.987c0.215-0.028 0.433 0.016 0.62 0.125s0.334 0.275 0.417 0.475l2.512 5.863c0.065 0.15 0.093 0.315 0.080 0.478s-0.066 0.321-0.155 0.459l-2.088 3.175c-0.093 0.144-0.147 0.309-0.158 0.479s0.022 0.341 0.096 0.496v0z"></path>
</symbol>
<symbol id="icon-XSquare" viewBox="0 0 32 32">
<path fill="none" stroke="#142f5b" style="stroke: var(--color1, #142f5b)" stroke-linejoin="round" stroke-linecap="round" stroke-miterlimit="4" stroke-width="2" d="M20 12l-8 8"></path>
<path fill="none" stroke="#142f5b" style="stroke: var(--color1, #142f5b)" stroke-linejoin="round" stroke-linecap="round" stroke-miterlimit="4" stroke-width="2" d="M20 20l-8-8"></path>
<path fill="none" stroke="#142f5b" style="stroke: var(--color1, #142f5b)" stroke-linejoin="round" stroke-linecap="round" stroke-miterlimit="4" stroke-width="2" d="M26 5h-20c-0.552 0-1 0.448-1 1v20c0 0.552 0.448 1 1 1h20c0.552 0 1-0.448 1-1v-20c0-0.552-0.448-1-1-1z"></path>
</symbol>
</defs>
</svg>
